<svg width="166" height="19" viewBox="0 0 166 19" fill="none" xmlns="http://www.w3.org/2000/svg">
<g filter="url(#filter0_d_2_2)">
<path d="M7.48 10L5.14 3.04C5.052 2.776 4.956 2.56 4.852 2.392C4.756 2.224 4.644 2.08 4.516 1.96C4.388 1.832 4.236 1.704 4.06 1.576L4.216 1.384H6.916L7.06 1.792L6.784 1.864C6.6 1.912 6.464 1.976 6.376 2.056C6.288 2.128 6.244 2.24 6.244 2.392C6.244 2.472 6.256 2.56 6.28 2.656C6.304 2.744 6.336 2.852 6.376 2.98L8.332 9.004L10.12 3.424L10 3.04C9.912 2.776 9.816 2.56 9.712 2.392C9.616 2.224 9.504 2.08 9.376 1.96C9.248 1.832 9.096 1.704 8.92 1.576L9.076 1.384H11.776L11.92 1.792L11.644 1.864C11.46 1.912 11.324 1.976 11.236 2.056C11.148 2.128 11.104 2.24 11.104 2.392C11.104 2.472 11.116 2.56 11.14 2.656C11.164 2.744 11.196 2.852 11.236 2.98L13.192 9.004L14.872 3.784C14.944 3.552 15 3.344 15.04 3.16C15.08 2.976 15.1 2.812 15.1 2.668C15.084 2.228 14.904 1.96 14.56 1.864L14.284 1.792L14.428 1.384H16.708L16.864 1.576L16.684 1.792C16.532 1.976 16.4 2.168 16.288 2.368C16.184 2.56 16.096 2.768 16.024 2.992L13.708 10H12.34L10.576 4.768L8.848 10H7.48ZM19.2063 10.168C18.6463 10.168 18.1583 10.04 17.7423 9.784C17.3343 9.528 17.0143 9.172 16.7823 8.716C16.5583 8.252 16.4463 7.712 16.4463 7.096C16.4463 6.448 16.5743 5.884 16.8303 5.404C17.0863 4.924 17.4463 4.552 17.9103 4.288C18.3823 4.016 18.9303 3.88 19.5543 3.88C20.0183 3.88 20.3983 3.964 20.6943 4.132C20.9983 4.3 21.2223 4.52 21.3663 4.792C21.5183 5.056 21.5943 5.34 21.5943 5.644C21.5943 5.972 21.5063 6.292 21.3303 6.604C21.1623 6.916 20.9063 7.172 20.5623 7.372C20.2263 7.572 19.8063 7.672 19.3023 7.672C19.2223 7.672 19.1063 7.664 18.9543 7.648C18.8103 7.624 18.6623 7.592 18.5103 7.552C18.3663 7.504 18.2423 7.444 18.1383 7.372C18.0343 7.3 17.9823 7.212 17.9823 7.108C17.9823 7.044 17.9983 6.984 18.0303 6.928C18.0703 6.872 18.1143 6.844 18.1623 6.844C18.2263 6.844 18.3063 6.872 18.4023 6.928C18.5063 6.976 18.6823 7 18.9303 7C19.2743 7 19.5583 6.936 19.7823 6.808C20.0063 6.672 20.1743 6.5 20.2863 6.292C20.3983 6.076 20.4543 5.856 20.4543 5.632C20.4543 5.336 20.3583 5.072 20.1663 4.84C19.9743 4.6 19.6903 4.48 19.3143 4.48C18.8023 4.48 18.4023 4.704 18.1143 5.152C17.8263 5.6 17.6823 6.248 17.6823 7.096C17.6823 7.8 17.8303 8.356 18.1263 8.764C18.4303 9.172 18.8743 9.376 19.4583 9.376C19.7943 9.376 20.1103 9.32 20.4063 9.208C20.7023 9.096 20.9703 8.924 21.2103 8.692C21.2423 8.66 21.2783 8.644 21.3183 8.644C21.3823 8.644 21.4503 8.684 21.5223 8.764C21.5943 8.836 21.6303 8.912 21.6303 8.992C21.6303 9.032 21.6143 9.068 21.5823 9.1C20.9663 9.812 20.1743 10.168 19.2063 10.168ZM24.3578 10.168C24.0298 10.168 23.7938 10.068 23.6498 9.868C23.5058 9.668 23.4338 9.344 23.4338 8.896V1.912C23.4338 1.736 23.3538 1.648 23.1938 1.648H22.6658L22.5578 1.336C22.7898 1.128 23.0538 0.956 23.3498 0.819999C23.6538 0.683999 23.9178 0.615999 24.1418 0.615999C24.2538 0.615999 24.3418 0.651999 24.4058 0.723999C24.4778 0.795999 24.5138 0.887999 24.5138 0.999999V8.944C24.5138 9.216 24.6338 9.352 24.8738 9.352C25.0738 9.352 25.2738 9.268 25.4738 9.1L25.7018 9.412C25.4938 9.644 25.2698 9.828 25.0298 9.964C24.7898 10.1 24.5658 10.168 24.3578 10.168ZM29.3109 10.168C28.7509 10.168 28.2509 10.032 27.8109 9.76C27.3789 9.488 27.0389 9.116 26.7909 8.644C26.5429 8.172 26.4189 7.636 26.4189 7.036C26.4189 6.396 26.5389 5.84 26.7789 5.368C27.0189 4.896 27.3549 4.532 27.7869 4.276C28.2269 4.012 28.7389 3.88 29.3229 3.88C29.9389 3.88 30.4429 4.032 30.8349 4.336C31.2349 4.632 31.4349 5.016 31.4349 5.488C31.4349 5.832 31.3229 6.116 31.0989 6.34C30.8829 6.556 30.6029 6.664 30.2589 6.664C30.1069 6.664 30.0309 6.62 30.0309 6.532C30.0309 6.492 30.0549 6.44 30.1029 6.376C30.1509 6.312 30.1989 6.216 30.2469 6.088C30.2949 5.952 30.3189 5.772 30.3189 5.548C30.3189 5.228 30.2149 4.976 30.0069 4.792C29.8069 4.6 29.5349 4.504 29.1909 4.504C28.7349 4.504 28.3669 4.728 28.0869 5.176C27.8069 5.624 27.6669 6.212 27.6669 6.94C27.6669 7.684 27.8309 8.276 28.1589 8.716C28.4949 9.148 28.9469 9.364 29.5149 9.364C30.0909 9.364 30.6189 9.164 31.0989 8.764C31.1229 8.74 31.1589 8.728 31.2069 8.728C31.2709 8.728 31.3349 8.764 31.3989 8.836C31.4709 8.908 31.5069 8.984 31.5069 9.064C31.5069 9.112 31.4949 9.148 31.4709 9.172C31.1909 9.492 30.8629 9.74 30.4869 9.916C30.1189 10.084 29.7269 10.168 29.3109 10.168ZM35.4524 10.168C34.8524 10.168 34.3324 10.04 33.8924 9.784C33.4604 9.528 33.1244 9.164 32.8844 8.692C32.6444 8.22 32.5244 7.664 32.5244 7.024C32.5244 6.376 32.6444 5.82 32.8844 5.356C33.1244 4.884 33.4604 4.52 33.8924 4.264C34.3324 4.008 34.8524 3.88 35.4524 3.88C36.0524 3.88 36.5684 4.008 37.0004 4.264C37.4404 4.52 37.7804 4.884 38.0204 5.356C38.2604 5.82 38.3804 6.376 38.3804 7.024C38.3804 7.664 38.2604 8.22 38.0204 8.692C37.7804 9.164 37.4404 9.528 37.0004 9.784C36.5684 10.04 36.0524 10.168 35.4524 10.168ZM35.4164 9.52C35.9124 9.52 36.3204 9.296 36.6404 8.848C36.9604 8.392 37.1204 7.796 37.1204 7.06C37.1204 6.82 37.0924 6.552 37.0364 6.256C36.9884 5.96 36.9004 5.68 36.7724 5.416C36.6524 5.152 36.4884 4.936 36.2804 4.768C36.0724 4.592 35.8084 4.504 35.4884 4.504C35.1524 4.504 34.8524 4.612 34.5884 4.828C34.3324 5.036 34.1324 5.332 33.9884 5.716C33.8444 6.092 33.7724 6.532 33.7724 7.036C33.7724 7.788 33.9204 8.392 34.2164 8.848C34.5124 9.296 34.9124 9.52 35.4164 9.52ZM48.6299 10.168C48.3019 10.168 48.0659 10.068 47.9219 9.868C47.7779 9.668 47.7059 9.344 47.7059 8.896V6.04C47.7059 5.224 47.4099 4.816 46.8179 4.816C46.4819 4.816 46.1859 4.948 45.9299 5.212C45.6739 5.468 45.4699 5.832 45.3179 6.304C45.1739 6.768 45.0939 7.312 45.0779 7.936V8.08C45.0779 8.464 45.1099 8.784 45.1739 9.04C45.2379 9.288 45.3819 9.548 45.6059 9.82L45.4619 10H43.9979V6.04C43.9979 5.224 43.7019 4.816 43.1099 4.816C42.7659 4.816 42.4619 4.952 42.1979 5.224C41.9419 5.496 41.7379 5.88 41.5859 6.376C41.4419 6.864 41.3699 7.432 41.3699 8.08C41.3699 8.456 41.3979 8.756 41.4539 8.98C41.5099 9.204 41.6099 9.42 41.7539 9.628L41.8979 9.82L41.7539 10H39.6539L39.5219 9.628L39.7739 9.568C39.9819 9.52 40.1179 9.432 40.1819 9.304C40.2459 9.176 40.2779 8.964 40.2779 8.668V5.296C40.2779 5.12 40.1979 5.032 40.0379 5.032H39.5099L39.4019 4.72C39.6339 4.512 39.8979 4.34 40.1939 4.204C40.4979 4.068 40.7619 4 40.9859 4C41.0979 4 41.1899 4.036 41.2619 4.108C41.3339 4.18 41.3699 4.272 41.3699 4.384V5.668C41.5059 5.316 41.6859 5.008 41.9099 4.744C42.1419 4.472 42.3979 4.26 42.6779 4.108C42.9659 3.956 43.2539 3.88 43.5419 3.88C44.0299 3.88 44.3979 4.024 44.6459 4.312C44.8939 4.6 45.0379 5.052 45.0779 5.668C45.2139 5.316 45.3939 5.008 45.6179 4.744C45.8499 4.472 46.1059 4.26 46.3859 4.108C46.6739 3.956 46.9619 3.88 47.2499 3.88C47.7859 3.88 48.1739 4.052 48.4139 4.396C48.6619 4.74 48.7859 5.288 48.7859 6.04V8.944C48.7859 9.216 48.9059 9.352 49.1459 9.352C49.3299 9.352 49.5299 9.268 49.7459 9.1L49.9739 9.412C49.7659 9.644 49.5419 9.828 49.3019 9.964C49.0619 10.1 48.8379 10.168 48.6299 10.168ZM53.5188 10.168C52.9588 10.168 52.4708 10.04 52.0548 9.784C51.6468 9.528 51.3268 9.172 51.0948 8.716C50.8708 8.252 50.7588 7.712 50.7588 7.096C50.7588 6.448 50.8868 5.884 51.1428 5.404C51.3988 4.924 51.7588 4.552 52.2228 4.288C52.6948 4.016 53.2428 3.88 53.8668 3.88C54.3308 3.88 54.7108 3.964 55.0068 4.132C55.3108 4.3 55.5348 4.52 55.6788 4.792C55.8308 5.056 55.9068 5.34 55.9068 5.644C55.9068 5.972 55.8188 6.292 55.6428 6.604C55.4748 6.916 55.2188 7.172 54.8748 7.372C54.5388 7.572 54.1188 7.672 53.6148 7.672C53.5348 7.672 53.4188 7.664 53.2668 7.648C53.1228 7.624 52.9748 7.592 52.8228 7.552C52.6788 7.504 52.5548 7.444 52.4508 7.372C52.3468 7.3 52.2948 7.212 52.2948 7.108C52.2948 7.044 52.3108 6.984 52.3428 6.928C52.3828 6.872 52.4268 6.844 52.4748 6.844C52.5388 6.844 52.6188 6.872 52.7148 6.928C52.8188 6.976 52.9948 7 53.2428 7C53.5868 7 53.8708 6.936 54.0948 6.808C54.3188 6.672 54.4868 6.5 54.5988 6.292C54.7108 6.076 54.7668 5.856 54.7668 5.632C54.7668 5.336 54.6708 5.072 54.4788 4.84C54.2868 4.6 54.0028 4.48 53.6268 4.48C53.1148 4.48 52.7148 4.704 52.4268 5.152C52.1388 5.6 51.9948 6.248 51.9948 7.096C51.9948 7.8 52.1428 8.356 52.4388 8.764C52.7428 9.172 53.1868 9.376 53.7708 9.376C54.1068 9.376 54.4228 9.32 54.7188 9.208C55.0148 9.096 55.2828 8.924 55.5228 8.692C55.5548 8.66 55.5908 8.644 55.6308 8.644C55.6948 8.644 55.7628 8.684 55.8348 8.764C55.9068 8.836 55.9428 8.912 55.9428 8.992C55.9428 9.032 55.9268 9.068 55.8948 9.1C55.2788 9.812 54.4868 10.168 53.5188 10.168ZM62.311 10L62.155 9.808L62.311 9.592C62.511 9.328 62.651 9.052 62.731 8.764C62.811 8.468 62.851 8.076 62.851 7.588V2.98C62.851 2.604 62.823 2.36 62.767 2.248C62.719 2.128 62.611 2.068 62.443 2.068H61.903C61.623 2.068 61.399 2.1 61.231 2.164C61.071 2.22 60.943 2.324 60.847 2.476C60.759 2.628 60.675 2.848 60.595 3.136L60.523 3.412L60.115 3.268V1.132L60.307 0.976L60.523 1.132C60.747 1.3 61.203 1.384 61.891 1.384H64.999C65.687 1.384 66.143 1.3 66.367 1.132L66.583 0.976L66.775 1.132V3.268L66.367 3.412L66.295 3.136C66.223 2.848 66.139 2.628 66.043 2.476C65.947 2.324 65.819 2.22 65.659 2.164C65.499 2.1 65.275 2.068 64.987 2.068H64.447C64.279 2.068 64.167 2.128 64.111 2.248C64.063 2.36 64.039 2.604 64.039 2.98V8.404C64.039 8.772 64.091 9.028 64.195 9.172C64.307 9.316 64.511 9.432 64.807 9.52L65.083 9.592L64.939 10H62.311ZM69.636 10.168C69.036 10.168 68.516 10.04 68.076 9.784C67.644 9.528 67.308 9.164 67.068 8.692C66.828 8.22 66.708 7.664 66.708 7.024C66.708 6.376 66.828 5.82 67.068 5.356C67.308 4.884 67.644 4.52 68.076 4.264C68.516 4.008 69.036 3.88 69.636 3.88C70.236 3.88 70.752 4.008 71.184 4.264C71.624 4.52 71.964 4.884 72.204 5.356C72.444 5.82 72.564 6.376 72.564 7.024C72.564 7.664 72.444 8.22 72.204 8.692C71.964 9.164 71.624 9.528 71.184 9.784C70.752 10.04 70.236 10.168 69.636 10.168ZM69.6 9.52C70.096 9.52 70.504 9.296 70.824 8.848C71.144 8.392 71.304 7.796 71.304 7.06C71.304 6.82 71.276 6.552 71.22 6.256C71.172 5.96 71.084 5.68 70.956 5.416C70.836 5.152 70.672 4.936 70.464 4.768C70.256 4.592 69.992 4.504 69.672 4.504C69.336 4.504 69.036 4.612 68.772 4.828C68.516 5.036 68.316 5.332 68.172 5.716C68.028 6.092 67.956 6.532 67.956 7.036C67.956 7.788 68.104 8.392 68.4 8.848C68.696 9.296 69.096 9.52 69.6 9.52ZM78.3542 10.168C77.8662 10.168 77.4582 10.084 77.1302 9.916C76.8102 9.748 76.5702 9.532 76.4102 9.268C76.2502 9.004 76.1702 8.732 76.1702 8.452C76.1702 8.204 76.2302 7.972 76.3502 7.756C76.4622 7.532 76.6302 7.352 76.8542 7.216C77.0862 7.072 77.3662 7 77.6942 7C77.7822 7 77.8422 7.016 77.8742 7.048C77.9062 7.072 77.9222 7.1 77.9222 7.132C77.9222 7.18 77.8742 7.252 77.7782 7.348C77.6822 7.436 77.5822 7.564 77.4782 7.732C77.3822 7.9 77.3342 8.132 77.3342 8.428C77.3342 8.732 77.4302 8.996 77.6222 9.22C77.8142 9.436 78.0862 9.544 78.4382 9.544C78.6542 9.544 78.8542 9.5 79.0382 9.412C79.2302 9.316 79.3822 9.152 79.4942 8.92C79.6142 8.68 79.6742 8.34 79.6742 7.9V2.98C79.6742 2.604 79.6222 2.348 79.5182 2.212C79.4142 2.068 79.2102 1.952 78.9062 1.864L78.6302 1.792L78.7742 1.384H81.4022L81.5582 1.576L81.4022 1.792C81.2022 2.056 81.0622 2.336 80.9822 2.632C80.9022 2.92 80.8622 3.308 80.8622 3.796V7.168C80.8622 7.888 80.7542 8.468 80.5382 8.908C80.3302 9.348 80.0382 9.668 79.6622 9.868C79.2862 10.068 78.8502 10.168 78.3542 10.168ZM85.1072 10.168C84.5312 10.168 84.0792 9.996 83.7512 9.652C83.4312 9.3 83.2712 8.808 83.2712 8.176V5.176C83.2712 5 83.1912 4.912 83.0312 4.912H82.5032L82.3952 4.6C82.6032 4.392 82.8552 4.22 83.1512 4.084C83.4552 3.948 83.7312 3.88 83.9792 3.88C84.0912 3.88 84.1832 3.916 84.2552 3.988C84.3272 4.06 84.3632 4.152 84.3632 4.264V7.9C84.3632 8.876 84.7472 9.364 85.5152 9.364C86.0512 9.364 86.4672 9.132 86.7632 8.668C87.0672 8.204 87.2192 7.564 87.2192 6.748C87.2192 6.356 87.2072 6.02 87.1832 5.74C87.1672 5.46 87.1272 5.216 87.0632 5.008C86.9992 4.792 86.8952 4.592 86.7512 4.408L86.6072 4.216L86.7512 4.036L88.2152 3.88V8.944C88.2152 9.192 88.3312 9.316 88.5632 9.316C88.7472 9.316 88.9432 9.244 89.1512 9.1L89.3792 9.412C89.1952 9.636 88.9792 9.82 88.7312 9.964C88.4912 10.1 88.2672 10.168 88.0592 10.168C87.4432 10.168 87.1352 9.784 87.1352 9.016C86.9592 9.368 86.6872 9.648 86.3192 9.856C85.9592 10.064 85.5552 10.168 85.1072 10.168ZM90.3492 10L90.2172 9.628L90.4692 9.568C90.6772 9.52 90.8132 9.432 90.8772 9.304C90.9412 9.176 90.9732 8.964 90.9732 8.668V5.296C90.9732 5.12 90.8932 5.032 90.7332 5.032H90.2052L90.0972 4.72C90.3292 4.512 90.5932 4.34 90.8892 4.204C91.1932 4.068 91.4572 4 91.6812 4C91.7932 4 91.8852 4.036 91.9572 4.108C92.0292 4.18 92.0652 4.272 92.0652 4.384V5.668H92.1372C92.2732 5.132 92.4812 4.7 92.7612 4.372C93.0492 4.044 93.3612 3.88 93.6972 3.88C94.0252 3.88 94.3012 3.988 94.5252 4.204C94.7492 4.42 94.8612 4.72 94.8612 5.104C94.8612 5.408 94.7492 5.664 94.5252 5.872C94.3092 6.08 94.0292 6.184 93.6852 6.184C93.5332 6.184 93.4572 6.14 93.4572 6.052C93.4572 6.012 93.4852 5.956 93.5412 5.884C93.5972 5.812 93.6532 5.72 93.7092 5.608C93.7652 5.496 93.7932 5.368 93.7932 5.224C93.7932 5.08 93.7532 4.968 93.6732 4.888C93.6012 4.8 93.5092 4.756 93.3972 4.756C93.2292 4.756 93.0412 4.864 92.8332 5.08C92.6252 5.288 92.4452 5.64 92.2932 6.136C92.1412 6.624 92.0652 7.288 92.0652 8.128C92.0652 8.488 92.0932 8.78 92.1492 9.004C92.2052 9.22 92.3052 9.428 92.4492 9.628L92.5932 9.82L92.4492 10H90.3492ZM97.5435 10.168C97.1675 10.168 96.8155 10.06 96.4875 9.844C96.1595 9.628 95.8955 9.304 95.6955 8.872C95.4955 8.44 95.3955 7.9 95.3955 7.252C95.3955 6.556 95.5195 5.956 95.7675 5.452C96.0235 4.948 96.3835 4.56 96.8475 4.288C97.3195 4.016 97.8715 3.88 98.5035 3.88C98.8795 3.88 99.2715 3.924 99.6795 4.012C100.087 4.092 100.495 4.148 100.903 4.18L101.035 4.336L100.891 4.552C100.843 4.624 100.803 4.696 100.771 4.768C100.747 4.832 100.735 4.916 100.735 5.02V8.944C100.735 9.192 100.855 9.316 101.095 9.316C101.295 9.316 101.495 9.244 101.695 9.1L101.923 9.412C101.715 9.644 101.491 9.828 101.251 9.964C101.019 10.1 100.799 10.168 100.591 10.168C100.263 10.168 100.027 10.068 99.8835 9.868C99.7395 9.668 99.6675 9.344 99.6675 8.896C99.3235 9.384 98.9755 9.72 98.6235 9.904C98.2795 10.08 97.9195 10.168 97.5435 10.168ZM98.0235 9.244C98.3275 9.244 98.6195 9.156 98.8995 8.98C99.1875 8.804 99.4435 8.528 99.6675 8.152V4.912C99.2995 4.664 98.9075 4.54 98.4915 4.54C97.9075 4.54 97.4555 4.76 97.1355 5.2C96.8155 5.632 96.6555 6.24 96.6555 7.024C96.6555 7.568 96.7195 8.004 96.8475 8.332C96.9755 8.652 97.1435 8.884 97.3515 9.028C97.5675 9.172 97.7915 9.244 98.0235 9.244ZM104.834 10.168C104.442 10.168 104.086 10.108 103.766 9.988C103.454 9.868 103.206 9.696 103.022 9.472C102.838 9.24 102.746 8.972 102.746 8.668C102.746 8.396 102.838 8.172 103.022 7.996C103.206 7.82 103.446 7.732 103.742 7.732C103.806 7.732 103.862 7.744 103.91 7.768C103.966 7.784 103.994 7.82 103.994 7.876C103.994 7.924 103.97 8 103.922 8.104C103.874 8.2 103.85 8.348 103.85 8.548C103.85 8.788 103.91 8.984 104.03 9.136C104.15 9.288 104.298 9.4 104.474 9.472C104.65 9.544 104.822 9.58 104.99 9.58C105.318 9.58 105.586 9.492 105.794 9.316C106.01 9.132 106.118 8.896 106.118 8.608C106.118 8.416 106.054 8.256 105.926 8.128C105.806 7.992 105.646 7.872 105.446 7.768C105.246 7.664 105.034 7.564 104.81 7.468C104.522 7.348 104.23 7.208 103.934 7.048C103.638 6.888 103.39 6.688 103.19 6.448C102.99 6.2 102.89 5.884 102.89 5.5C102.89 5.172 102.986 4.888 103.178 4.648C103.37 4.408 103.63 4.22 103.958 4.084C104.286 3.948 104.658 3.88 105.074 3.88C105.634 3.88 106.102 3.992 106.478 4.216C106.862 4.432 107.054 4.732 107.054 5.116C107.054 5.412 106.958 5.66 106.766 5.86C106.582 6.06 106.342 6.16 106.046 6.16C105.878 6.16 105.794 6.108 105.794 6.004C105.794 5.94 105.822 5.86 105.878 5.764C105.942 5.66 105.974 5.516 105.974 5.332C105.974 5.116 105.922 4.944 105.818 4.816C105.714 4.688 105.586 4.596 105.434 4.54C105.29 4.484 105.142 4.456 104.99 4.456C104.654 4.456 104.394 4.54 104.21 4.708C104.026 4.868 103.934 5.076 103.934 5.332C103.934 5.548 103.998 5.732 104.126 5.884C104.262 6.036 104.438 6.168 104.654 6.28C104.87 6.392 105.098 6.5 105.338 6.604C105.634 6.724 105.922 6.86 106.202 7.012C106.49 7.156 106.73 7.336 106.922 7.552C107.114 7.768 107.21 8.04 107.21 8.368C107.21 8.912 106.994 9.348 106.562 9.676C106.13 10.004 105.554 10.168 104.834 10.168ZM110.611 10.168C110.219 10.168 109.863 10.108 109.543 9.988C109.231 9.868 108.983 9.696 108.799 9.472C108.615 9.24 108.523 8.972 108.523 8.668C108.523 8.396 108.615 8.172 108.799 7.996C108.983 7.82 109.223 7.732 109.519 7.732C109.583 7.732 109.639 7.744 109.687 7.768C109.743 7.784 109.771 7.82 109.771 7.876C109.771 7.924 109.747 8 109.699 8.104C109.651 8.2 109.627 8.348 109.627 8.548C109.627 8.788 109.687 8.984 109.807 9.136C109.927 9.288 110.075 9.4 110.251 9.472C110.427 9.544 110.599 9.58 110.767 9.58C111.095 9.58 111.363 9.492 111.571 9.316C111.787 9.132 111.895 8.896 111.895 8.608C111.895 8.416 111.831 8.256 111.703 8.128C111.583 7.992 111.423 7.872 111.223 7.768C111.023 7.664 110.811 7.564 110.587 7.468C110.299 7.348 110.007 7.208 109.711 7.048C109.415 6.888 109.167 6.688 108.967 6.448C108.767 6.2 108.667 5.884 108.667 5.5C108.667 5.172 108.763 4.888 108.955 4.648C109.147 4.408 109.407 4.22 109.735 4.084C110.063 3.948 110.435 3.88 110.851 3.88C111.411 3.88 111.879 3.992 112.255 4.216C112.639 4.432 112.831 4.732 112.831 5.116C112.831 5.412 112.735 5.66 112.543 5.86C112.359 6.06 112.119 6.16 111.823 6.16C111.655 6.16 111.571 6.108 111.571 6.004C111.571 5.94 111.599 5.86 111.655 5.764C111.719 5.66 111.751 5.516 111.751 5.332C111.751 5.116 111.699 4.944 111.595 4.816C111.491 4.688 111.363 4.596 111.211 4.54C111.067 4.484 110.919 4.456 110.767 4.456C110.431 4.456 110.171 4.54 109.987 4.708C109.803 4.868 109.711 5.076 109.711 5.332C109.711 5.548 109.775 5.732 109.903 5.884C110.039 6.036 110.215 6.168 110.431 6.28C110.647 6.392 110.875 6.5 111.115 6.604C111.411 6.724 111.699 6.86 111.979 7.012C112.267 7.156 112.507 7.336 112.699 7.552C112.891 7.768 112.987 8.04 112.987 8.368C112.987 8.912 112.771 9.348 112.339 9.676C111.907 10.004 111.331 10.168 110.611 10.168ZM115.872 10.168C115.544 10.168 115.308 10.068 115.164 9.868C115.02 9.668 114.948 9.344 114.948 8.896V5.176C114.948 5 114.868 4.912 114.708 4.912H114.18L114.072 4.6C114.304 4.392 114.568 4.22 114.864 4.084C115.168 3.948 115.432 3.88 115.656 3.88C115.768 3.88 115.856 3.916 115.92 3.988C115.992 4.06 116.028 4.152 116.028 4.264V8.944C116.028 9.216 116.148 9.352 116.388 9.352C116.588 9.352 116.788 9.268 116.988 9.1L117.216 9.412C117.008 9.644 116.784 9.828 116.544 9.964C116.304 10.1 116.08 10.168 115.872 10.168ZM115.512 2.884C115.424 2.884 115.32 2.84 115.2 2.752C115.088 2.664 114.988 2.56 114.9 2.44C114.82 2.32 114.78 2.208 114.78 2.104C114.78 2 114.82 1.888 114.9 1.768C114.988 1.64 115.088 1.532 115.2 1.444C115.312 1.356 115.416 1.312 115.512 1.312C115.616 1.312 115.724 1.356 115.836 1.444C115.956 1.532 116.056 1.64 116.136 1.768C116.224 1.888 116.268 2 116.268 2.104C116.268 2.208 116.224 2.32 116.136 2.44C116.056 2.56 115.956 2.664 115.836 2.752C115.724 2.84 115.616 2.884 115.512 2.884ZM120.823 10.168C120.263 10.168 119.763 10.032 119.323 9.76C118.891 9.488 118.551 9.116 118.303 8.644C118.055 8.172 117.931 7.636 117.931 7.036C117.931 6.396 118.051 5.84 118.291 5.368C118.531 4.896 118.867 4.532 119.299 4.276C119.739 4.012 120.251 3.88 120.835 3.88C121.451 3.88 121.955 4.032 122.347 4.336C122.747 4.632 122.947 5.016 122.947 5.488C122.947 5.832 122.835 6.116 122.611 6.34C122.395 6.556 122.115 6.664 121.771 6.664C121.619 6.664 121.543 6.62 121.543 6.532C121.543 6.492 121.567 6.44 121.615 6.376C121.663 6.312 121.711 6.216 121.759 6.088C121.807 5.952 121.831 5.772 121.831 5.548C121.831 5.228 121.727 4.976 121.519 4.792C121.319 4.6 121.047 4.504 120.703 4.504C120.247 4.504 119.879 4.728 119.599 5.176C119.319 5.624 119.179 6.212 119.179 6.94C119.179 7.684 119.343 8.276 119.671 8.716C120.007 9.148 120.459 9.364 121.027 9.364C121.603 9.364 122.131 9.164 122.611 8.764C122.635 8.74 122.671 8.728 122.719 8.728C122.783 8.728 122.847 8.764 122.911 8.836C122.983 8.908 123.019 8.984 123.019 9.064C123.019 9.112 123.007 9.148 122.983 9.172C122.703 9.492 122.375 9.74 121.999 9.916C121.631 10.084 121.239 10.168 120.823 10.168ZM130.281 10L127.941 3.04C127.853 2.776 127.757 2.56 127.653 2.392C127.557 2.224 127.445 2.08 127.317 1.96C127.189 1.832 127.037 1.704 126.861 1.576L127.017 1.384H129.717L129.861 1.792L129.585 1.864C129.401 1.912 129.265 1.976 129.177 2.056C129.089 2.128 129.045 2.24 129.045 2.392C129.045 2.472 129.057 2.56 129.081 2.656C129.105 2.744 129.137 2.852 129.177 2.98L131.133 9.004L132.921 3.424L132.801 3.04C132.713 2.776 132.617 2.56 132.513 2.392C132.417 2.224 132.305 2.08 132.177 1.96C132.049 1.832 131.897 1.704 131.721 1.576L131.877 1.384H134.577L134.721 1.792L134.445 1.864C134.261 1.912 134.125 1.976 134.037 2.056C133.949 2.128 133.905 2.24 133.905 2.392C133.905 2.472 133.917 2.56 133.941 2.656C133.965 2.744 133.997 2.852 134.037 2.98L135.993 9.004L137.673 3.784C137.745 3.552 137.801 3.344 137.841 3.16C137.881 2.976 137.901 2.812 137.901 2.668C137.885 2.228 137.705 1.96 137.361 1.864L137.085 1.792L137.229 1.384H139.509L139.665 1.576L139.485 1.792C139.333 1.976 139.201 2.168 139.089 2.368C138.985 2.56 138.897 2.768 138.825 2.992L136.509 10H135.141L133.377 4.768L131.649 10H130.281ZM142.175 10.168C141.575 10.168 141.055 10.04 140.615 9.784C140.183 9.528 139.847 9.164 139.607 8.692C139.367 8.22 139.247 7.664 139.247 7.024C139.247 6.376 139.367 5.82 139.607 5.356C139.847 4.884 140.183 4.52 140.615 4.264C141.055 4.008 141.575 3.88 142.175 3.88C142.775 3.88 143.291 4.008 143.723 4.264C144.163 4.52 144.503 4.884 144.743 5.356C144.983 5.82 145.103 6.376 145.103 7.024C145.103 7.664 144.983 8.22 144.743 8.692C144.503 9.164 144.163 9.528 143.723 9.784C143.291 10.04 142.775 10.168 142.175 10.168ZM142.139 9.52C142.635 9.52 143.043 9.296 143.363 8.848C143.683 8.392 143.843 7.796 143.843 7.06C143.843 6.82 143.815 6.552 143.759 6.256C143.711 5.96 143.623 5.68 143.495 5.416C143.375 5.152 143.211 4.936 143.003 4.768C142.795 4.592 142.531 4.504 142.211 4.504C141.875 4.504 141.575 4.612 141.311 4.828C141.055 5.036 140.855 5.332 140.711 5.716C140.567 6.092 140.495 6.532 140.495 7.036C140.495 7.788 140.643 8.392 140.939 8.848C141.235 9.296 141.635 9.52 142.139 9.52ZM146.377 10L146.245 9.628L146.497 9.568C146.705 9.52 146.841 9.432 146.905 9.304C146.969 9.176 147.001 8.964 147.001 8.668V5.296C147.001 5.12 146.921 5.032 146.761 5.032H146.233L146.125 4.72C146.357 4.512 146.621 4.34 146.917 4.204C147.221 4.068 147.485 4 147.709 4C147.821 4 147.913 4.036 147.985 4.108C148.057 4.18 148.093 4.272 148.093 4.384V5.668H148.165C148.301 5.132 148.509 4.7 148.789 4.372C149.077 4.044 149.389 3.88 149.725 3.88C150.053 3.88 150.329 3.988 150.553 4.204C150.777 4.42 150.889 4.72 150.889 5.104C150.889 5.408 150.777 5.664 150.553 5.872C150.337 6.08 150.057 6.184 149.713 6.184C149.561 6.184 149.485 6.14 149.485 6.052C149.485 6.012 149.513 5.956 149.569 5.884C149.625 5.812 149.681 5.72 149.737 5.608C149.793 5.496 149.821 5.368 149.821 5.224C149.821 5.08 149.781 4.968 149.701 4.888C149.629 4.8 149.537 4.756 149.425 4.756C149.257 4.756 149.069 4.864 148.861 5.08C148.653 5.288 148.473 5.64 148.321 6.136C148.169 6.624 148.093 7.288 148.093 8.128C148.093 8.488 148.121 8.78 148.177 9.004C148.233 9.22 148.333 9.428 148.477 9.628L148.621 9.82L148.477 10H146.377ZM152.983 10.168C152.655 10.168 152.419 10.068 152.275 9.868C152.131 9.668 152.059 9.344 152.059 8.896V1.912C152.059 1.736 151.979 1.648 151.819 1.648H151.291L151.183 1.336C151.415 1.128 151.679 0.956 151.975 0.819999C152.279 0.683999 152.543 0.615999 152.767 0.615999C152.879 0.615999 152.967 0.651999 153.031 0.723999C153.103 0.795999 153.139 0.887999 153.139 0.999999V8.944C153.139 9.216 153.259 9.352 153.499 9.352C153.699 9.352 153.899 9.268 154.099 9.1L154.327 9.412C154.119 9.644 153.895 9.828 153.655 9.964C153.415 10.1 153.191 10.168 152.983 10.168ZM157.192 10.168C156.816 10.168 156.464 10.06 156.136 9.844C155.808 9.628 155.544 9.304 155.344 8.872C155.144 8.44 155.044 7.9 155.044 7.252C155.044 6.556 155.168 5.956 155.416 5.452C155.672 4.948 156.032 4.56 156.496 4.288C156.968 4.016 157.52 3.88 158.152 3.88C158.568 3.88 158.948 3.932 159.292 4.036V1.912C159.292 1.736 159.212 1.648 159.052 1.648H158.524L158.416 1.336C158.648 1.128 158.912 0.956 159.208 0.819999C159.512 0.683999 159.776 0.615999 160 0.615999C160.112 0.615999 160.204 0.651999 160.276 0.723999C160.348 0.795999 160.384 0.887999 160.384 0.999999V8.944C160.384 9.192 160.504 9.316 160.744 9.316C160.944 9.316 161.144 9.244 161.344 9.1L161.572 9.412C161.364 9.644 161.14 9.828 160.9 9.964C160.668 10.1 160.448 10.168 160.24 10.168C159.912 10.168 159.676 10.068 159.532 9.868C159.388 9.668 159.316 9.344 159.316 8.896C158.972 9.384 158.624 9.72 158.272 9.904C157.928 10.08 157.568 10.168 157.192 10.168ZM157.672 9.244C157.976 9.244 158.268 9.156 158.548 8.98C158.836 8.804 159.092 8.528 159.316 8.152V4.912C158.948 4.664 158.556 4.54 158.14 4.54C157.556 4.54 157.104 4.76 156.784 5.2C156.464 5.632 156.304 6.24 156.304 7.024C156.304 7.568 156.368 8.004 156.496 8.332C156.624 8.652 156.792 8.884 157 9.028C157.216 9.172 157.44 9.244 157.672 9.244Z" fill="white"/>
</g>
<defs>
<filter id="filter0_d_2_2" x="0.0599976" y="0.615997" width="165.512" height="17.552" filterUnits="userSpaceOnUse" color-interpolation-filters="sRGB">
<feFlood flood-opacity="0" result="BackgroundImageFix"/>
<feColorMatrix in="SourceAlpha" type="matrix" values="0 0 0 0 0 0 0 0 0 0 0 0 0 0 0 0 0 0 127 0" result="hardAlpha"/>
<feOffset dy="4"/>
<feGaussianBlur stdDeviation="2"/>
<feComposite in2="hardAlpha" operator="out"/>
<feColorMatrix type="matrix" values="0 0 0 0 0 0 0 0 0 0 0 0 0 0 0 0 0 0 0.25 0"/>
<feBlend mode="normal" in2="BackgroundImageFix" result="effect1_dropShadow_2_2"/>
<feBlend mode="normal" in="SourceGraphic" in2="effect1_dropShadow_2_2" result="shape"/>
</filter>
</defs>
</svg>
